<mxfile host="app.diagrams.net" modified="2023-10-20T06:48:23.927Z" agent="Mozilla/5.0 (Windows NT 10.0; Win64; x64) AppleWebKit/537.36 (KHTML, like Gecko) Chrome/116.0.0.0 Safari/537.36 OPR/102.0.0.0" etag="5PZlVKH3QndL6gcr1137" version="21.7.5" type="device">
  <diagram name="Seite-1" id="30u-lvfzlhw7eFi9Znjb">
    <mxGraphModel dx="1466" dy="806" grid="1" gridSize="10" guides="1" tooltips="1" connect="1" arrows="1" fold="1" page="1" pageScale="1" pageWidth="1169" pageHeight="827" math="0" shadow="0">
      <root>
        <mxCell id="0" />
        <mxCell id="1" parent="0" />
        <mxCell id="KPmaFu6CL5R_xPsP0XI--2" value="&lt;font style=&quot;font-size: 24px;&quot;&gt;Flightcontroller&lt;/font&gt;" style="text;html=1;align=center;verticalAlign=middle;resizable=0;points=[];autosize=1;strokeColor=none;fillColor=none;" vertex="1" parent="1">
          <mxGeometry x="530" y="40" width="180" height="40" as="geometry" />
        </mxCell>
        <mxCell id="KPmaFu6CL5R_xPsP0XI--4" value="Cortex M7" style="rounded=0;whiteSpace=wrap;html=1;verticalAlign=top;" vertex="1" parent="1">
          <mxGeometry x="520" y="110" width="200" height="380" as="geometry" />
        </mxCell>
        <mxCell id="KPmaFu6CL5R_xPsP0XI--5" value="&lt;font style=&quot;font-size: 24px;&quot;&gt;Sensoren&lt;/font&gt;" style="text;html=1;align=center;verticalAlign=middle;resizable=0;points=[];autosize=1;strokeColor=none;fillColor=none;" vertex="1" parent="1">
          <mxGeometry x="250" y="40" width="130" height="40" as="geometry" />
        </mxCell>
        <mxCell id="KPmaFu6CL5R_xPsP0XI--6" value="Accelerometer&lt;br&gt;&amp;amp; Gyroscope" style="rounded=0;whiteSpace=wrap;html=1;fillColor=#ffe6cc;strokeColor=#d79b00;" vertex="1" parent="1">
          <mxGeometry x="310" y="150" width="90" height="60" as="geometry" />
        </mxCell>
        <mxCell id="KPmaFu6CL5R_xPsP0XI--7" value="Magnetometer" style="whiteSpace=wrap;html=1;fillColor=#9933FF;strokeColor=#9673a6;fontColor=#FFFFFF;" vertex="1" parent="1">
          <mxGeometry x="110" y="90" width="90" height="60" as="geometry" />
        </mxCell>
        <mxCell id="KPmaFu6CL5R_xPsP0XI--9" value="Barometer" style="whiteSpace=wrap;html=1;fillColor=#ffe6cc;strokeColor=#d79b00;" vertex="1" parent="1">
          <mxGeometry x="110" y="210" width="90" height="60" as="geometry" />
        </mxCell>
        <mxCell id="KPmaFu6CL5R_xPsP0XI--10" value="serieller Receiver" style="whiteSpace=wrap;html=1;fillColor=#d5e8d4;strokeColor=#82b366;" vertex="1" parent="1">
          <mxGeometry x="310" y="390" width="90" height="60" as="geometry" />
        </mxCell>
        <mxCell id="KPmaFu6CL5R_xPsP0XI--11" value="Fernsteuerung" style="whiteSpace=wrap;html=1;" vertex="1" parent="1">
          <mxGeometry x="120" y="390" width="90" height="60" as="geometry" />
        </mxCell>
        <mxCell id="KPmaFu6CL5R_xPsP0XI--13" value="ESC" style="whiteSpace=wrap;html=1;" vertex="1" parent="1">
          <mxGeometry x="840" y="270" width="120" height="60" as="geometry" />
        </mxCell>
        <mxCell id="KPmaFu6CL5R_xPsP0XI--14" value="Motoren" style="whiteSpace=wrap;html=1;" vertex="1" parent="1">
          <mxGeometry x="840" y="410" width="120" height="60" as="geometry" />
        </mxCell>
        <mxCell id="KPmaFu6CL5R_xPsP0XI--16" value="" style="endArrow=classic;html=1;rounded=0;startArrow=classic;startFill=1;" edge="1" parent="1">
          <mxGeometry width="50" height="50" relative="1" as="geometry">
            <mxPoint x="400" y="177" as="sourcePoint" />
            <mxPoint x="520" y="177" as="targetPoint" />
          </mxGeometry>
        </mxCell>
        <mxCell id="KPmaFu6CL5R_xPsP0XI--19" value="I²C" style="text;html=1;align=center;verticalAlign=middle;resizable=0;points=[];autosize=1;strokeColor=none;fillColor=none;" vertex="1" parent="1">
          <mxGeometry x="440" y="150" width="40" height="30" as="geometry" />
        </mxCell>
        <mxCell id="KPmaFu6CL5R_xPsP0XI--20" value="" style="endArrow=classic;html=1;rounded=0;startArrow=classic;startFill=1;" edge="1" parent="1">
          <mxGeometry width="50" height="50" relative="1" as="geometry">
            <mxPoint x="400" y="339.83000000000004" as="sourcePoint" />
            <mxPoint x="520" y="339.83000000000004" as="targetPoint" />
          </mxGeometry>
        </mxCell>
        <mxCell id="KPmaFu6CL5R_xPsP0XI--21" value="Ausgangslogik" style="rounded=0;whiteSpace=wrap;html=1;fillColor=#ffe6cc;strokeColor=#d79b00;" vertex="1" parent="1">
          <mxGeometry x="560" y="270" width="120" height="60" as="geometry" />
        </mxCell>
        <mxCell id="KPmaFu6CL5R_xPsP0XI--22" value="" style="endArrow=classic;html=1;rounded=0;" edge="1" parent="1">
          <mxGeometry width="50" height="50" relative="1" as="geometry">
            <mxPoint x="400" y="419.83000000000004" as="sourcePoint" />
            <mxPoint x="520" y="419.83000000000004" as="targetPoint" />
          </mxGeometry>
        </mxCell>
        <mxCell id="KPmaFu6CL5R_xPsP0XI--23" value="" style="endArrow=classic;html=1;rounded=0;" edge="1" parent="1">
          <mxGeometry width="50" height="50" relative="1" as="geometry">
            <mxPoint x="720" y="299.71000000000004" as="sourcePoint" />
            <mxPoint x="840" y="299.71000000000004" as="targetPoint" />
          </mxGeometry>
        </mxCell>
        <mxCell id="KPmaFu6CL5R_xPsP0XI--24" value="4x PWM out" style="text;html=1;align=center;verticalAlign=middle;resizable=0;points=[];autosize=1;strokeColor=none;fillColor=none;" vertex="1" parent="1">
          <mxGeometry x="730" y="270" width="90" height="30" as="geometry" />
        </mxCell>
        <mxCell id="KPmaFu6CL5R_xPsP0XI--25" value="" style="endArrow=classic;html=1;rounded=0;" edge="1" parent="1">
          <mxGeometry width="50" height="50" relative="1" as="geometry">
            <mxPoint x="899.76" y="330" as="sourcePoint" />
            <mxPoint x="899.76" y="410" as="targetPoint" />
          </mxGeometry>
        </mxCell>
        <mxCell id="KPmaFu6CL5R_xPsP0XI--27" value="" style="endArrow=classic;html=1;rounded=1;exitX=1;exitY=0.5;exitDx=0;exitDy=0;entryX=0;entryY=0.25;entryDx=0;entryDy=0;startArrow=classic;startFill=1;" edge="1" parent="1" source="KPmaFu6CL5R_xPsP0XI--7" target="KPmaFu6CL5R_xPsP0XI--6">
          <mxGeometry width="50" height="50" relative="1" as="geometry">
            <mxPoint x="260" y="220" as="sourcePoint" />
            <mxPoint x="310" y="170" as="targetPoint" />
          </mxGeometry>
        </mxCell>
        <mxCell id="KPmaFu6CL5R_xPsP0XI--28" value="" style="endArrow=classic;html=1;rounded=0;exitX=1;exitY=0.5;exitDx=0;exitDy=0;entryX=0;entryY=0.75;entryDx=0;entryDy=0;startArrow=classic;startFill=1;" edge="1" parent="1" source="KPmaFu6CL5R_xPsP0XI--9" target="KPmaFu6CL5R_xPsP0XI--6">
          <mxGeometry width="50" height="50" relative="1" as="geometry">
            <mxPoint x="270" y="240" as="sourcePoint" />
            <mxPoint x="320" y="190" as="targetPoint" />
          </mxGeometry>
        </mxCell>
        <mxCell id="KPmaFu6CL5R_xPsP0XI--29" value="I²C" style="text;html=1;align=center;verticalAlign=middle;resizable=0;points=[];autosize=1;strokeColor=none;fillColor=none;" vertex="1" parent="1">
          <mxGeometry x="240" y="110" width="40" height="30" as="geometry" />
        </mxCell>
        <mxCell id="KPmaFu6CL5R_xPsP0XI--30" value="I²C" style="text;html=1;align=center;verticalAlign=middle;resizable=0;points=[];autosize=1;strokeColor=none;fillColor=none;" vertex="1" parent="1">
          <mxGeometry x="230" y="190" width="40" height="30" as="geometry" />
        </mxCell>
        <mxCell id="KPmaFu6CL5R_xPsP0XI--31" value="Akku-&lt;br&gt;spannungs-messer" style="whiteSpace=wrap;html=1;fillColor=#ffe6cc;strokeColor=#d79b00;" vertex="1" parent="1">
          <mxGeometry x="310" y="310" width="90" height="60" as="geometry" />
        </mxCell>
        <mxCell id="KPmaFu6CL5R_xPsP0XI--32" value="" style="sketch=0;aspect=fixed;pointerEvents=1;shadow=0;dashed=0;html=1;strokeColor=none;labelPosition=center;verticalLabelPosition=bottom;verticalAlign=top;align=center;fillColor=#330000;shape=mxgraph.mscae.enterprise.wireless_connection" vertex="1" parent="1">
          <mxGeometry x="238" y="395" width="42" height="50" as="geometry" />
        </mxCell>
        <mxCell id="KPmaFu6CL5R_xPsP0XI--33" value="1-Wire" style="text;html=1;align=center;verticalAlign=middle;resizable=0;points=[];autosize=1;strokeColor=none;fillColor=none;" vertex="1" parent="1">
          <mxGeometry x="430" y="310" width="60" height="30" as="geometry" />
        </mxCell>
        <mxCell id="KPmaFu6CL5R_xPsP0XI--34" value="UART" style="text;html=1;align=center;verticalAlign=middle;resizable=0;points=[];autosize=1;strokeColor=none;fillColor=none;" vertex="1" parent="1">
          <mxGeometry x="430" y="395" width="60" height="30" as="geometry" />
        </mxCell>
        <mxCell id="KPmaFu6CL5R_xPsP0XI--35" value="&lt;font style=&quot;font-size: 24px;&quot;&gt;Motorsteuerung&lt;/font&gt;" style="text;html=1;align=center;verticalAlign=middle;resizable=0;points=[];autosize=1;strokeColor=none;fillColor=none;" vertex="1" parent="1">
          <mxGeometry x="805" y="40" width="190" height="40" as="geometry" />
        </mxCell>
        <mxCell id="KPmaFu6CL5R_xPsP0XI--39" value="" style="whiteSpace=wrap;html=1;fillColor=#9933FF;strokeColor=#9673a6;fontColor=#FFFFFF;" vertex="1" parent="1">
          <mxGeometry x="160" y="530" width="30" height="30" as="geometry" />
        </mxCell>
        <mxCell id="KPmaFu6CL5R_xPsP0XI--40" value="maybe in future" style="text;html=1;align=left;verticalAlign=middle;resizable=0;points=[];autosize=1;strokeColor=none;fillColor=none;" vertex="1" parent="1">
          <mxGeometry x="200" y="530" width="110" height="30" as="geometry" />
        </mxCell>
        <mxCell id="KPmaFu6CL5R_xPsP0XI--41" value="" style="whiteSpace=wrap;html=1;fillColor=#ffe6cc;strokeColor=#d79b00;" vertex="1" parent="1">
          <mxGeometry x="160" y="560" width="30" height="30" as="geometry" />
        </mxCell>
        <mxCell id="KPmaFu6CL5R_xPsP0XI--42" value="" style="whiteSpace=wrap;html=1;fillColor=#d5e8d4;strokeColor=#82b366;" vertex="1" parent="1">
          <mxGeometry x="160" y="590" width="30" height="30" as="geometry" />
        </mxCell>
        <mxCell id="KPmaFu6CL5R_xPsP0XI--43" value="work in progress" style="text;html=1;align=left;verticalAlign=middle;resizable=0;points=[];autosize=1;strokeColor=none;fillColor=none;" vertex="1" parent="1">
          <mxGeometry x="200" y="560" width="110" height="30" as="geometry" />
        </mxCell>
        <mxCell id="KPmaFu6CL5R_xPsP0XI--44" value="finished" style="text;html=1;align=left;verticalAlign=middle;resizable=0;points=[];autosize=1;strokeColor=none;fillColor=none;" vertex="1" parent="1">
          <mxGeometry x="200" y="590" width="60" height="30" as="geometry" />
        </mxCell>
      </root>
    </mxGraphModel>
  </diagram>
</mxfile>
